HIERARCHY
ROOT Hips
{
	OFFSET -0.001795 -0.223333 0.028219
	CHANNELS 6 Xposition Yposition Zposition Zrotation Yrotation Xrotation 
	JOINT LeftUpLeg
	{
		OFFSET 0.069520 -0.091406 -0.006815
		CHANNELS 3 Zrotation Yrotation Xrotation
		JOINT LeftLeg
		{
			OFFSET 0.034277 -0.375199 -0.004496
			CHANNELS 3 Zrotation Yrotation Xrotation
			JOINT LeftFoot
			{
				OFFSET -0.013596 -0.397961 -0.043693
				CHANNELS 3 Zrotation Yrotation Xrotation
				JOINT LeftToe
				{
					OFFSET 0.026358 -0.055791 0.119288
					CHANNELS 3 Zrotation Yrotation Xrotation
					End Site
					{
						OFFSET 0.000000 0.000000 0.000000
					}
				}
			}
		}
	}
	JOINT RightUpLeg
	{
		OFFSET -0.067670 -0.090522 -0.004320
		CHANNELS 3 Zrotation Yrotation Xrotation
		JOINT RightLeg
		{
			OFFSET -0.038290 -0.382569 -0.008850
			CHANNELS 3 Zrotation Yrotation Xrotation
			JOINT RightFoot
			{
				OFFSET 0.015774 -0.398415 -0.042312
				CHANNELS 3 Zrotation Yrotation Xrotation
				JOINT RightToe
				{
					OFFSET -0.025372 -0.048144 0.123348
					CHANNELS 3 Zrotation Yrotation Xrotation
					End Site
					{
						OFFSET 0.000000 0.000000 0.000000
					}
				}
			}
		}
	}
	JOINT Spine
	{
		OFFSET -0.002533 0.108963 -0.026696
		CHANNELS 3 Zrotation Yrotation Xrotation
		JOINT Spine1
		{
			OFFSET 0.005487 0.135180 0.001092
			CHANNELS 3 Zrotation Yrotation Xrotation
			JOINT Spine2
			{
				OFFSET 0.001457 0.052922 0.025425
				CHANNELS 3 Zrotation Yrotation Xrotation
				JOINT Neck
				{
					OFFSET -0.002778 0.213870 -0.042857
					CHANNELS 3 Zrotation Yrotation Xrotation
					JOINT Head
					{
						OFFSET 0.005152 0.064970 0.051349
						CHANNELS 3 Zrotation Yrotation Xrotation
						End Site
						{
							OFFSET 0.000000 0.000000 0.000000
						}
					}
				}
				JOINT LeftShoulder
				{
					OFFSET 0.078845 0.121749 -0.034090
					CHANNELS 3 Zrotation Yrotation Xrotation
					JOINT LeftArm
					{
						OFFSET 0.090977 0.030469 -0.008868
						CHANNELS 3 Zrotation Yrotation Xrotation
						JOINT LeftForeArm
						{
							OFFSET 0.259612 -0.012772 -0.027456
							CHANNELS 3 Zrotation Yrotation Xrotation
							JOINT LeftHand
							{
								OFFSET 0.249234 0.008986 -0.001171
								CHANNELS 3 Zrotation Yrotation Xrotation
								End Site
								{
									OFFSET 0.000000 0.000000 0.000000
								}
							}
						}
					}
				}
				JOINT RightShoulder
				{
					OFFSET -0.081759 0.118833 -0.038615
					CHANNELS 3 Zrotation Yrotation Xrotation
					JOINT RightArm
					{
						OFFSET -0.096012 0.032551 -0.009143
						CHANNELS 3 Zrotation Yrotation Xrotation
						JOINT RightForeArm
						{
							OFFSET -0.253742 -0.013329 -0.021401
							CHANNELS 3 Zrotation Yrotation Xrotation
							JOINT RightHand
							{
								OFFSET -0.255298 0.007772 -0.005559
								CHANNELS 3 Zrotation Yrotation Xrotation
								End Site
								{
									OFFSET 0.000000 0.000000 0.000000
								}
							}
						}
					}
				}
			}
		}
	}
}
MOTION
Frames: 7
Frame Time: 0.050000
-0.045071 0.946039 -0.026715 -0.087491 18.001358 8.167767 7.630949 -1.662119 -21.986382 2.477197 -1.383852 13.785079 -7.583130 -8.948427 8.590090 0.000000 0.000000 0.000000 -7.003523 0.278291 -10.123879 1.274602 -0.219843 10.636966 -7.322735 -17.126285 9.094709 0.000000 0.000000 0.000000 4.509528 -0.217604 0.255490 -3.522207 1.624417 -1.704488 -1.705789 19.092996 15.343968 12.941194 -24.720740 19.264863 0.000000 0.000000 0.000000 34.690577 0.275479 9.903926 0.265285 -67.166702 -19.771824 114.536569 -20.143199 -41.565107 0.000000 0.000000 0.000000 -36.739782 1.473765 -5.080697 47.101117 16.389809 9.010751 -121.069038 26.813869 -15.779467 0.000000 0.000000 0.000000 
-0.045814 0.943253 -0.029016 0.343421 17.172667 8.643202 7.140603 -1.711104 -22.312086 2.537613 -1.439912 14.326338 -6.299618 -7.645527 7.178209 0.000000 0.000000 0.000000 -8.367471 0.161564 -11.175363 2.477241 -0.516950 11.582041 -7.387727 -17.404619 8.425843 0.000000 0.000000 0.000000 4.880268 -0.336245 1.376468 -4.808237 2.172244 -1.886865 -0.777790 21.209127 15.983551 13.232320 -25.879276 19.643109 0.000000 0.000000 0.000000 31.160976 0.753539 9.509897 -2.006245 -65.793239 -17.874611 116.207836 -22.489128 -46.827477 0.000000 0.000000 0.000000 -36.131925 1.886675 -5.367528 47.201180 18.347475 10.245038 -119.347915 26.347106 -13.337058 0.000000 0.000000 0.000000 
-0.046748 0.941424 -0.031429 0.695170 16.589903 8.937592 7.355458 -1.657787 -22.264968 1.934426 -1.242300 13.784432 -6.081565 -6.663604 7.931684 0.000000 0.000000 0.000000 -9.067431 0.089327 -12.511128 2.764221 -0.635761 13.286131 -7.355089 -17.572580 6.871217 0.000000 0.000000 0.000000 4.992130 -0.402513 2.009288 -5.280731 2.341205 -0.747822 -0.637947 22.167793 15.684335 13.443239 -26.172655 19.548054 0.000000 0.000000 0.000000 28.677469 1.522977 9.014830 -3.202361 -65.199049 -16.624816 117.370495 -21.920808 -46.940676 0.000000 0.000000 0.000000 -36.010467 2.539894 -5.336689 44.540757 18.714301 9.577130 -116.671328 26.395045 -11.469749 0.000000 0.000000 0.000000 
-0.048326 0.941011 -0.033329 0.402142 14.189824 9.422868 8.442553 -1.433284 -22.406633 0.960407 -0.947688 13.301756 -4.823571 -4.091702 8.455816 0.000000 0.000000 0.000000 -9.449150 0.130979 -14.028716 3.478655 -0.776590 14.306755 -6.920178 -16.921112 5.464462 0.000000 0.000000 0.000000 4.752913 -0.511042 3.363144 -5.692392 2.549671 -2.233701 -0.690446 22.952386 16.669168 11.854124 -25.963057 21.951296 0.000000 0.000000 0.000000 27.729466 3.218759 8.508953 -4.293995 -65.915309 -16.033029 119.582559 -20.392841 -45.360145 0.000000 0.000000 0.000000 -37.034627 0.808913 -5.562337 45.552047 17.721712 9.562746 -118.930564 24.995576 -10.372343 0.000000 0.000000 0.000000 
-0.050580 0.941658 -0.034712 -0.043314 11.550240 9.822337 9.488121 -1.159944 -22.069274 0.081072 -0.659291 12.486328 -3.454445 -2.040113 8.011446 0.000000 0.000000 0.000000 -8.533577 0.357312 -15.125199 2.202239 -0.364656 15.396315 -5.164675 -13.175149 3.718587 0.000000 0.000000 0.000000 3.510568 -0.418408 3.443223 -5.150316 2.329879 -2.539408 -1.328217 19.764548 17.581676 10.679012 -21.977223 20.634535 0.000000 0.000000 0.000000 30.039558 5.417270 7.830971 -11.403286 -67.026888 -10.762571 120.887901 -14.683749 -34.616017 0.000000 0.000000 0.000000 -35.200421 -1.103795 -4.819559 48.624391 20.922858 10.863597 -123.261674 23.115656 -13.157047 0.000000 0.000000 0.000000 
-0.053088 0.940475 -0.035698 -2.021753 6.862843 9.910683 12.176755 -0.537459 -21.741323 -0.882700 -0.396838 13.163203 -1.198821 1.291085 7.178079 0.000000 0.000000 0.000000 -6.988232 0.768071 -17.554900 1.900856 -0.105272 16.514776 -3.244227 -9.015049 3.979392 0.000000 0.000000 0.000000 2.288132 -0.343418 3.759886 -3.768597 1.736832 -2.540242 -2.498427 14.890681 16.636381 9.417837 -17.907535 19.952463 0.000000 0.000000 0.000000 35.046909 3.522482 7.084902 -23.265193 -66.093431 -0.923138 123.520738 -9.017841 -22.747974 0.000000 0.000000 0.000000 -31.105532 -4.133109 -3.322407 54.601165 28.253286 14.333745 -127.488695 22.751010 -21.352434 0.000000 0.000000 0.000000 
-0.055566 0.938818 -0.036728 -4.038526 1.184430 10.179696 15.290163 0.337554 -22.087116 -3.214498 0.249424 15.881633 1.614739 5.435348 5.460917 0.000000 0.000000 0.000000 -4.703612 1.359842 -19.593504 0.996524 0.392783 17.844417 -1.466214 -4.970895 3.143704 0.000000 0.000000 0.000000 1.123639 -0.236132 3.499952 -2.533906 1.182182 -2.406655 -3.632888 9.664449 15.594079 5.314188 -11.903023 23.054692 0.000000 0.000000 0.000000 39.988007 -0.513556 5.312808 -41.693184 -64.571125 13.293597 125.965757 -7.298107 -15.198160 0.000000 0.000000 0.000000 -26.523207 -5.756600 -1.603406 63.747054 33.169018 17.294573 -131.926383 26.828964 -38.715368 0.000000 0.000000 0.000000 
